<svg width="60" height="60" viewBox="0 0 60 60" fill="none" xmlns="http://www.w3.org/2000/svg">
<path d="M51.6003 8.40039H27.6003C26.1602 8.40039 25.2003 9.3603 25.2003 10.8004V15.6004H18.0003C17.2804 15.6004 16.5602 15.8405 16.3201 16.3203L6.72011 25.9203C6.2403 26.1603 6.00024 26.8805 6.00024 27.6004V42.0004C6.00024 43.4405 6.96016 44.4004 8.40024 44.4004H10.8002C10.8002 48.4806 13.9201 51.6004 18.0002 51.6004C22.0804 51.6004 25.2002 48.4806 25.2002 44.4004H34.8002C34.8002 48.4806 37.9201 51.6004 42.0003 51.6004C46.0804 51.6004 49.2002 48.4806 49.2002 44.4004H51.6003C53.0403 44.4004 54.0003 43.4405 54.0003 42.0004V10.8004C54.0003 9.36034 53.0403 8.40042 51.6003 8.40042L51.6003 8.40039ZM10.8003 28.5604L18.9602 20.4005H25.2003V30.0005H10.8003V28.5604ZM18.0003 46.8004C16.5602 46.8004 15.6003 45.8405 15.6003 44.4004C15.6003 42.9603 16.5602 42.0004 18.0003 42.0004C19.4404 42.0004 20.4003 42.9603 20.4003 44.4004C20.4003 45.8405 19.4404 46.8004 18.0003 46.8004ZM42.0003 46.8004C40.5602 46.8004 39.6003 45.8405 39.6003 44.4004C39.6003 42.9603 40.5602 42.0004 42.0003 42.0004C43.4404 42.0004 44.4003 42.9603 44.4003 44.4004C44.4003 45.8405 43.4404 46.8004 42.0003 46.8004ZM49.2003 39.6004H47.2805C46.0805 38.1603 44.1606 37.2004 42.0003 37.2004C39.8404 37.2004 37.9201 38.1603 36.7201 39.6004H23.2801C22.0801 38.1603 20.1603 37.2004 17.9999 37.2004C15.84 37.2004 13.9198 38.1603 12.7198 39.6004H10.7999V34.8004H49.1999L49.2003 39.6004ZM49.2003 30.0004H30.0003V13.2004H49.2003V30.0004Z" fill="white"/>
</svg>
