<svg xmlns="http://www.w3.org/2000/svg" width="60" height="60" fill="none" viewBox="0 0 60 60"><path fill="#fff" d="M50.587 37.2c.518 0 .938-.42.938-.937v-4.688a.94.94 0 0 0-.938-.937h-.937v-3.75a.94.94 0 0 0-.938-.938h-1.875V14.7h.938c.517 0 .937-.42.937-.937v-1.36A5.21 5.21 0 0 0 43.51 7.2H17.775a3.75 3.75 0 0 0-3.75 3.75V44.7H9.338a.94.94 0 0 0-.938.938v2.812a3.75 3.75 0 0 0 3.75 3.75h29.297a5.397 5.397 0 0 0 5.39-5.39v-.235h3.75c.518 0 .938-.42.938-.937V40.95a.94.94 0 0 0-.937-.937h-.938V37.2zm-5.625 9.61a3.52 3.52 0 0 1-3.515 3.515H15.395c.32-.552.505-1.192.505-1.875v-37.5a1.875 1.875 0 1 1 3.75 0v2.813c0 .518.42.938.938.938h24.375v11.25h-9.376a.94.94 0 0 0-.937.937v4.688c0 .517.42.937.938.937h.937v2.813h-.937a.94.94 0 0 0-.938.937v4.688c0 .517.42.937.938.937h.937v3.75c0 .518.42.938.938.938h7.5zm2.813-6.797h-11.25V37.2h11.25zm0-9.375h-11.25v-2.813h11.25z"/><path fill="#fff" d="M30.9 17.513H18.713a.938.938 0 0 0 0 1.875H30.9a.938.938 0 0 0 0-1.875M30.9 22.2H18.713a.938.938 0 0 0 0 1.875H30.9a.938.938 0 0 0 0-1.875M30.9 26.888H18.713a.938.938 0 0 0 0 1.875H30.9a.938.938 0 0 0 0-1.875M30.9 31.576H18.713a.938.938 0 0 0 0 1.875H30.9a.938.938 0 0 0 0-1.875M30.9 36.263H18.713a.938.938 0 0 0 0 1.875H30.9a.938.938 0 0 0 0-1.875"/></svg>