<svg xmlns="http://www.w3.org/2000/svg" width="106" height="17" fill="none" viewBox="0 0 106 17"><path fill="#fed464" d="m8.5 0 1.908 5.873h6.176l-4.996 3.63 1.908 5.874-4.996-3.63-4.996 3.63 1.908-5.874-4.996-3.63h6.176zM30.73 0l1.91 5.873h6.175l-4.996 3.63 1.908 5.874-4.996-3.63-4.997 3.63 1.909-5.874-4.996-3.63h6.175zM52.962 0l1.908 5.873h6.176l-4.997 3.63 1.909 5.874-4.996-3.63-4.997 3.63 1.909-5.874-4.996-3.63h6.175zM75.192 0l1.909 5.873h6.175l-4.996 3.63 1.908 5.874-4.996-3.63-4.996 3.63 1.909-5.874-4.997-3.63h6.176zM97.423 0l1.909 5.873h6.175l-4.996 3.63 1.908 5.874-4.996-3.63-4.996 3.63 1.908-5.874-4.996-3.63h6.176z"/></svg>